<svg width="40" height="40" viewBox="0 0 40 40" fill="none" xmlns="http://www.w3.org/2000/svg">
<path d="M26.6666 13.3333C29.3188 13.3333 31.8623 14.3869 33.7377 16.2623C35.613 18.1376 36.6666 20.6812 36.6666 23.3333L36.6666 35L29.9999 35L29.9999 23.3333C29.9999 22.4493 29.6487 21.6014 29.0236 20.9763C28.3985 20.3512 27.5506 20 26.6666 20C25.7825 20 24.9347 20.3512 24.3096 20.9763C23.6844 21.6014 23.3333 22.4493 23.3333 23.3333L23.3333 35L16.6666 35L16.6666 23.3333C16.6666 20.6812 17.7202 18.1376 19.5955 16.2623C21.4709 14.3869 24.0144 13.3333 26.6666 13.3333Z" stroke="#1E1E1E" stroke-width="4" stroke-linecap="round" stroke-linejoin="round"/>
<path d="M9.99992 15L3.33325 15L3.33325 35L9.99992 35L9.99992 15Z" stroke="#1E1E1E" stroke-width="4" stroke-linecap="round" stroke-linejoin="round"/>
<path d="M6.66659 10C8.50753 10 9.99992 8.50763 9.99992 6.66668C9.99992 4.82573 8.50753 3.33334 6.66659 3.33334C4.82564 3.33334 3.33325 4.82573 3.33325 6.66668C3.33325 8.50763 4.82564 10 6.66659 10Z" stroke="#1E1E1E" stroke-width="4" stroke-linecap="round" stroke-linejoin="round"/>
</svg>
